<?xml version="1.0" encoding="UTF-8" standalone="no"?>
<!DOCTYPE svg PUBLIC "-//W3C//DTD SVG 1.1//EN" "http://www.w3.org/Graphics/SVG/1.1/DTD/svg11.dtd">
<svg width="100%" height="100%" viewBox="0 0 100 100" version="1.1" xmlns="http://www.w3.org/2000/svg" xmlns:xlink="http://www.w3.org/1999/xlink" xml:space="preserve" xmlns:serif="http://www.serif.com/" style="fill-rule:evenodd;clip-rule:evenodd;stroke-linejoin:round;stroke-miterlimit:2;">
    <g id="project-management" transform="matrix(1.043684,0,0,1.043684,-2.17643,-2.180309)">
        <g id="daily_report" transform="matrix(0.268002,0,0,0.268002,49.703367,50.614711)">
            <g id="project-management1" serif:id="project-management">
                <g id="daily_report1" serif:id="daily_report" transform="matrix(1,0,0,1,-108.333333,-108.333333)">
                    <g transform="matrix(0.416667,0,0,0.416667,0,0)">
                        <path d="M174,116L347,116C356,116 363,109 363,100L363,68C363,42 342,20 316,20L206,20C180.047,20.541 158.994,42.042 159,68L159,100C158,109 165,116 174,116ZM433,60L417,60C412,60 409,63 409,68L409,100C409,135 381,164 346,164L174,164C139.27,163.457 110.996,134.735 111,100L111,68C111,63 108,60 103,60L87,60C61.047,60.541 39.994,82.042 40,108L40,452C40,478 61,500 87,500L433,500C459,500 480,478 480,452L480,108C480,82 459,60 433,60ZM174,404C174,413 167,420 158,420L142,420C133,420 126,413 126,404L126,388C126,379 133,372 142,372L158,372C167,372 174,379 174,388L174,404ZM174,324C174,333 167,340 158,340L142,340C133,340 126,333 126,324L126,308C126,299 133,292 142,292L158,292C167,292 174,299 174,308L174,324ZM174,244C174,253 167,260 158,260L142,260C133,260 126,253 126,244L126,228C126,219 133,212 142,212L158,212C167,212 174,219 174,228L174,244ZM394,404C394,413 387,420 378,420L221,420C212,420 205,413 205,404L205,388C205,379 212,372 221,372L378,372C387,372 394,379 394,388L394,404ZM394,324C394,333 387,340 378,340L221,340C212,340 205,333 205,324L205,308C205,299 212,292 221,292L378,292C387,292 394,299 394,308L394,324ZM394,244C394,253 387,260 378,260L221,260C212,260 205,253 205,244L205,228C205,219 212,212 221,212L378,212C387,212 394,219 394,228L394,244Z" style="fill:white;fill-rule:nonzero;"/>
                    </g>
                </g>
                <g id="daily_report2" serif:id="daily_report">
                </g>
            </g>
        </g>
    </g>
</svg>
