<?xml version="1.0" encoding="UTF-8" standalone="no"?>
<!DOCTYPE svg PUBLIC "-//W3C//DTD SVG 1.1//EN" "http://www.w3.org/Graphics/SVG/1.1/DTD/svg11.dtd">
<svg width="100%" height="100%" viewBox="0 0 100 100" version="1.1" xmlns="http://www.w3.org/2000/svg" xmlns:xlink="http://www.w3.org/1999/xlink" xml:space="preserve" xmlns:serif="http://www.serif.com/" style="fill-rule:evenodd;clip-rule:evenodd;stroke-linejoin:round;stroke-miterlimit:2;">
    <g id="project-management" transform="matrix(1.043684,0,0,1.043684,-2.17643,-2.180309)">
        <g id="project_phase" transform="matrix(0.267147,0,0,0.267147,49.796011,50.606799)">
            <g id="project-management1" serif:id="project-management">
                <g id="project_phase1" serif:id="project_phase" transform="matrix(1,0,0,1,-108.333333,-108.333333)">
                    <g transform="matrix(4.166667,0,0,4.166667,0,0)">
                        <path d="M15.2,28.4L15.2,24C20.355,23.004 24.114,18.45 24.114,13.2C24.114,7.198 19.202,2.247 13.2,2.2C7.198,2.247 2.286,7.198 2.286,13.2C2.286,18.45 6.045,23.004 11.2,24L11.2,28.4C6.045,29.396 2.286,33.95 2.286,39.2C2.286,45.202 7.198,50.153 13.2,50.2C19.202,50.153 24.114,45.202 24.114,39.2C24.114,33.95 20.355,29.396 15.2,28.4ZM6.2,13.2C6.2,9.36 9.36,6.2 13.2,6.2C17.1,6.2 20.2,9.3 20.2,13.2C20.2,17.1 17.1,20.2 13.2,20.2C9.3,20.2 6.2,17.2 6.2,13.2ZM30.3,9.2L48.2,9.2C49.297,9.2 50.2,10.103 50.2,11.2L50.2,15.2C50.2,16.297 49.297,17.2 48.2,17.2L30.3,17.2C29.203,17.2 28.3,16.297 28.3,15.2L28.3,11.2C28.3,10.1 29.2,9.2 30.3,9.2ZM30.3,35.2L48.2,35.2C49.297,35.2 50.2,36.103 50.2,37.2L50.2,41.2C50.2,42.297 49.297,43.2 48.2,43.2L30.3,43.2C29.203,43.2 28.3,42.297 28.3,41.2L28.3,37.2C28.3,36.2 29.2,35.2 30.3,35.2Z" style="fill:white;fill-rule:nonzero;"/>
                    </g>
                </g>
                <g id="project_phase2" serif:id="project_phase">
                </g>
            </g>
        </g>
    </g>
</svg>
