<?xml version="1.0" encoding="UTF-8" standalone="no"?>
<!DOCTYPE svg PUBLIC "-//W3C//DTD SVG 1.1//EN" "http://www.w3.org/Graphics/SVG/1.1/DTD/svg11.dtd">
<svg width="100%" height="100%" viewBox="0 0 100 100" version="1.1" xmlns="http://www.w3.org/2000/svg" xmlns:xlink="http://www.w3.org/1999/xlink" xml:space="preserve" xmlns:serif="http://www.serif.com/" style="fill-rule:evenodd;clip-rule:evenodd;stroke-linejoin:round;stroke-miterlimit:2;">
    <g id="project-management" transform="matrix(1.043684,0,0,1.043684,-2.17643,-2.180309)">
        <g id="site_observation" transform="matrix(0.25847,0,0,0.25847,49.768568,50.739757)">
            <g id="project-management1" serif:id="project-management">
                <g id="site_observation1" serif:id="site_observation" transform="matrix(1,0,0,1,-108.333333,-108.333333)">
                    <clipPath id="_clip1">
                        <rect x="0" y="0" width="216.667" height="216.667"/>
                    </clipPath>
                    <g clip-path="url(#_clip1)">
                        <g transform="matrix(0.416667,0,0,0.416667,0,0)">
                            <path d="M518,251C469.454,153.138 369.241,90.984 260,90.984C150.759,90.984 50.546,153.138 2,251C-1,257 -1,264 2,269C50.546,366.862 150.759,429.016 260,429.016C369.241,429.016 469.454,366.862 518,269C521,263 521,257 518,251ZM260,370C199,370 150,321 150,260C150,199 199,150 260,150C321,150 370,199 370,260C370,321 321,370 260,370ZM260,190C221,190 190,221 190,260C190,299 221,330 260,330C299,330 330,299 330,260C330,221 299,190 260,190Z" style="fill:white;fill-rule:nonzero;"/>
                        </g>
                    </g>
                </g>
                <g id="site_observation2" serif:id="site_observation">
                </g>
            </g>
        </g>
    </g>
</svg>
